<svg xmlns="http://www.w3.org/2000/svg" version="1.1" xmlns:xlink="http://www.w3.org/1999/xlink" xmlns:svgjs="http://svgjs.dev/svgjs" viewBox="0 0 15.315483982288681 15.268128114159898"><g transform="matrix(0.8569530043557617,0,0,0.8569530043557617,2.1874469131728764,11.583362730607139)"><rect width="17.864118323659397" height="17.864118323659397" x="-2.5486343413707147" y="-13.54059504822429" fill="#ffffff"></rect><g clip-path="url(#SvgjsClipPath4274)"><g clip-path="url(#SvgjsClipPath426951ba259b-635d-4fe0-9d90-44ae32c080fb)"><path d=" M 4.502073812484187 -1.134999999999998 L 2.3793543975108657 -1.134999999999998 C 1.8767790843084595 -1.134999999999998 1.4667834340643915 -1.5449956502440667 1.4667834340643915 -2.047570963446473 L 1.4667834340643915 -4.170290378419795 L 1.7180710906655947 -4.170290378419795 L 1.7180710906655947 -2.047570963446473 C 1.7180710906655947 -1.6838651446815742 2.0156485787459664 -1.386287656601203 2.3793543975108657 -1.386287656601203 L 4.502073812484188 -1.386287656601203 L 4.502073812484188 -1.134999999999998 Z" fill="#efe0e2" transform="matrix(1,0,0,1,0,0)" fill-rule="nonzero"></path></g><g clip-path="url(#SvgjsClipPath426951ba259b-635d-4fe0-9d90-44ae32c080fb)"><path d=" M 1.7180710906655945 -4.738994022306727 L 1.4667834340643913 -4.738994022306727 L 1.4667834340643913 -6.861713437280049 C 1.4667834340643913 -7.364288750482455 1.8767790843084593 -7.774284400726523 2.3793543975108657 -7.774284400726523 L 4.502073812484188 -7.774284400726523 L 4.502073812484188 -7.52299674412532 L 2.3793543975108657 -7.52299674412532 C 2.0156485787459664 -7.52299674412532 1.7180710906655947 -7.2254192560449475 1.7180710906655947 -6.861713437280049 L 1.7180710906655947 -4.738994022306727 Z" fill="#efe0e2" transform="matrix(1,0,0,1,0,0)" fill-rule="nonzero"></path></g><g clip-path="url(#SvgjsClipPath426951ba259b-635d-4fe0-9d90-44ae32c080fb)"><path d=" M 8.106067834790917 -4.738994022306727 L 7.8547801781897135 -4.738994022306727 L 7.8547801781897135 -6.861713437280049 C 7.8547801781897135 -7.2254192560449475 7.557202690109341 -7.52299674412532 7.193496871344442 -7.52299674412532 L 5.064164623302668 -7.52299674412532 L 5.064164623302668 -7.774284400726523 L 7.186884038275989 -7.774284400726523 C 7.689459351478395 -7.774284400726523 8.099455001722465 -7.364288750482455 8.099455001722465 -6.861713437280049 L 8.106067834790917 -4.738994022306727 L 8.106067834790917 -4.738994022306727 Z" fill="#efe0e2" transform="matrix(1,0,0,1,0,0)" fill-rule="nonzero"></path></g><g clip-path="url(#SvgjsClipPath426951ba259b-635d-4fe0-9d90-44ae32c080fb)"><path d=" M 7.186884038275989 -1.134999999999998 L 5.064164623302668 -1.134999999999998 L 5.064164623302668 -1.386287656601203 L 7.186884038275989 -1.386287656601203 C 7.5505898570408885 -1.386287656601203 7.848167345121261 -1.6838651446815742 7.848167345121261 -2.047570963446473 L 7.848167345121261 -4.170290378419795 L 8.099455001722465 -4.170290378419795 L 8.099455001722465 -2.047570963446473 C 8.106067834790917 -1.5449956502440667 7.689459351478395 -1.134999999999998 7.186884038275989 -1.134999999999998 Z" fill="#efe0e2" transform="matrix(1,0,0,1,0,0)" fill-rule="nonzero"></path></g><g clip-path="url(#SvgjsClipPath426951ba259b-635d-4fe0-9d90-44ae32c080fb)"><path d=" M 7.696072184546848 -4.328998372062658 L 5.5733527695735265 -4.328998372062658 C 5.07077745637112 -4.328998372062658 4.660781806127052 -4.738994022306727 4.660781806127052 -5.241569335509133 L 4.660781806127052 -7.364288750482455 L 4.9120694627282555 -7.364288750482455 L 4.9120694627282555 -5.2415693355091335 C 4.9120694627282555 -4.877863516744234 5.209646950808628 -4.580286028663862 5.5733527695735265 -4.580286028663862 L 7.696072184546848 -4.580286028663862 L 7.696072184546848 -4.328998372062658 Z" fill="#efe0e2" transform="matrix(1,0,0,1,0,0)" fill-rule="nonzero"></path></g><g clip-path="url(#SvgjsClipPath426951ba259b-635d-4fe0-9d90-44ae32c080fb)"><path d=" M 4.9120694627282555 -7.932992394369388 L 4.660781806127052 -7.932992394369388 L 4.660781806127052 -10.049098976274257 C 4.660781806127052 -10.551674289476663 5.07077745637112 -10.961669939720732 5.5733527695735265 -10.961669939720732 L 7.696072184546848 -10.961669939720732 L 7.696072184546848 -10.710382283119529 L 5.5733527695735265 -10.710382283119529 C 5.209646950808628 -10.710382283119529 4.9120694627282555 -10.412804795039156 4.9120694627282555 -10.049098976274257 L 4.9120694627282555 -7.932992394369388 Z" fill="#efe0e2" transform="matrix(1,0,0,1,0,0)" fill-rule="nonzero"></path></g><g clip-path="url(#SvgjsClipPath426951ba259b-635d-4fe0-9d90-44ae32c080fb)"><path d=" M 11.300066206853577 -7.932992394369388 L 11.048778550252372 -7.932992394369388 L 11.048778550252372 -10.049098976274257 C 11.048778550252372 -10.412804795039156 10.751201062172001 -10.710382283119529 10.387495243407102 -10.710382283119529 L 8.26477582843378 -10.710382283119529 L 8.26477582843378 -10.968282772789184 L 10.387495243407102 -10.968282772789184 C 10.890070556609507 -10.968282772789184 11.300066206853577 -10.558287122545115 11.300066206853577 -10.055711809342709 L 11.300066206853577 -7.932992394369388 Z" fill="#efe0e2" transform="matrix(1,0,0,1,0,0)" fill-rule="nonzero"></path></g><g clip-path="url(#SvgjsClipPath426951ba259b-635d-4fe0-9d90-44ae32c080fb)"><path d=" M 10.38088241033865 -4.328998372062658 L 8.258162995365328 -4.328998372062658 L 8.258162995365328 -4.580286028663861 L 10.38088241033865 -4.580286028663861 C 10.744588229103549 -4.580286028663861 11.042165717183922 -4.877863516744233 11.042165717183922 -5.241569335509133 L 11.042165717183922 -7.364288750482455 L 11.293453373785125 -7.364288750482455 L 11.293453373785125 -5.2415693355091335 C 11.300066206853577 -4.738994022306727 10.883457723541056 -4.328998372062658 10.38088241033865 -4.328998372062658 Z" fill="#efe0e2" transform="matrix(1,0,0,1,0,0)" fill-rule="nonzero"></path></g><g clip-path="url(#SvgjsClipPath426951ba259b-635d-4fe0-9d90-44ae32c080fb)"><path d=" M 10.35443107806484 -9.196043510443857 L 10.35443107806484 -6.107850467476439 C 10.35443107806484 -5.651564985753201 9.984112426231489 -5.2746335008513965 9.521214111439798 -5.2746335008513965 L 8.344129825255216 -5.2746335008513965 L 8.344129825255216 -7.126226760018157 C 8.344129825255216 -7.615576407083658 7.947359841148053 -8.018959224259273 7.458010194082552 -8.018959224259273 L 5.5998041018473375 -8.018959224259273 L 5.5998041018473375 -9.196043510443857 C 5.5998041018473375 -9.652328992167094 5.970122753680689 -10.029260477068899 6.43302106847238 -10.029260477068899 L 9.521214111439797 -10.029260477068899 C 9.977499593163035 -10.022647644000445 10.35443107806484 -9.652328992167094 10.35443107806484 -9.196043510443857 Z" fill="#c84449" transform="matrix(1,0,0,1,0,0)" fill-rule="nonzero"></path></g><g clip-path="url(#SvgjsClipPath426951ba259b-635d-4fe0-9d90-44ae32c080fb)"><path d=" M 2.4058057297846767 -2.9072392623453247 L 2.4058057297846767 -6.002045138381195 C 2.4058057297846767 -6.458330620104434 2.776124381618029 -6.835262105006238 3.2390226964097186 -6.835262105006238 L 4.416106982594302 -6.835262105006238 L 4.416106982594302 -4.983668845839477 C 4.416106982594302 -4.494319198773977 4.812876966701465 -4.090936381598361 5.302226613766965 -4.090936381598361 L 7.160432706002179 -4.090936381598361 L 7.160432706002179 -2.9138520954137785 C 7.160432706002179 -2.4575666136905383 6.790114054168826 -2.0806351287887352 6.327215739377136 -2.0806351287887352 L 3.2390226964097186 -2.0806351287887352 C 2.776124381618029 -2.0806351287887352 2.4058057297846767 -2.450953780622088 2.4058057297846767 -2.9072392623453247 Z" fill="#e37f7c" transform="matrix(1,0,0,1,0,0)" fill-rule="nonzero"></path></g><g clip-path="url(#SvgjsClipPath426951ba259b-635d-4fe0-9d90-44ae32c080fb)"><path d=" M 5.60641693491579 -4.970443179702572 L 7.458010194082551 -4.970443179702572 L 7.458010194082551 -6.822036438869332 C 7.458010194082551 -7.020421430922914 7.299302200439685 -7.179129424565779 7.100917208386104 -7.179129424565779 L 5.2493239492193435 -7.179129424565779 L 5.2493239492193435 -5.327536165399018 C 5.2559367822877965 -5.129151173345437 5.414644775930661 -4.970443179702572 5.60641693491579 -4.970443179702572 Z" fill="#0094ff" transform="matrix(1,0,0,1,0,0)" fill-rule="nonzero"></path></g></g><g><path d=" M 0.9326625000000001 0.3335640000000002 L 0.47181750000000006 0.3335640000000002 L 0.47181750000000006 0.6759060000000003 L 0.8712165000000001 0.6759060000000003 L 0.8712165000000001 0.9282735000000003 L 0.47181750000000006 0.9282735000000003 L 0.47181750000000006 1.4681205000000004 L 0.08778000000000001 1.4681205000000004 L 0.08778000000000001 0.059251500000000235 L 0.9326625000000001 0.059251500000000235 L 0.9326625000000001 0.3335640000000002 M 1.5011530826660158 1.4681205000000004 L 1.1280880826660158 1.4681205000000004 L 1.1280880826660158 2.220446049250313e-16 L 1.5011530826660158 2.220446049250313e-16 L 1.5011530826660158 1.4681205000000004 M 1.992830807666016 1.7512110000000005 L 1.808492807666016 1.7512110000000005 L 1.808492807666016 1.4812875000000003 L 1.970885807666016 1.4812875000000003 Q 2.023553807666016 1.4812875000000003 2.054276807666016 1.4637315000000004 Q 2.084999807666016 1.4461755000000003 2.106944807666016 1.3803405000000004 L 1.964302307666016 1.3803405000000004 L 1.663655807666016 0.3730650000000002 L 2.054276807666016 0.3730650000000002 L 2.188141307666016 1.0401930000000004 L 2.306644307666016 0.3730650000000002 L 2.681903807666016 0.3730650000000002 L 2.4075913076660163 1.4461755000000003 Q 2.361506807666016 1.5975960000000005 2.267143307666016 1.6744035000000004 Q 2.172779807666016 1.7512110000000005 1.992830807666016 1.7512110000000005 M 3.8933539589355473 0.3730650000000002 L 4.235695958935548 0.3730650000000002 L 4.0008844589355474 1.4681205000000004 L 3.630013958935548 1.4681205000000004 L 3.4961494589355473 0.8229375000000003 L 3.3600904589355474 1.4681205000000004 L 2.9892199589355473 1.4681205000000004 L 2.7675754589355472 0.3730650000000002 L 3.1143064589355474 0.3730650000000002 L 3.1955029589355473 1.0643325000000003 L 3.3381454589355473 0.3730650000000002 L 3.6651259589355476 0.3730650000000002 L 3.7924069589355476 1.0599435000000004 L 3.8933539589355473 0.3730650000000002 M 4.709853044531251 0.3730650000000002 L 4.9775820445312515 0.3730650000000002 Q 5.300173544531251 0.3730650000000002 5.300173544531251 0.6451830000000003 L 5.300173544531251 1.0182480000000003 L 4.740576044531251 1.0182480000000003 L 4.740576044531251 1.1630850000000004 Q 4.740576044531251 1.2113640000000003 4.795438544531251 1.2113640000000003 L 4.891996544531251 1.2113640000000003 Q 4.9468590445312515 1.2113640000000003 4.9468590445312515 1.1586960000000004 L 4.9468590445312515 1.0972500000000003 L 5.300173544531251 1.0972500000000003 L 5.300173544531251 1.1960025000000003 Q 5.300173544531251 1.4681205000000004 4.9775820445312515 1.4681205000000004 L 4.709853044531251 1.4681205000000004 Q 4.387261544531251 1.4681205000000004 4.387261544531251 1.1960025000000003 L 4.387261544531251 0.6451830000000003 Q 4.387261544531251 0.3730650000000002 4.709853044531251 0.3730650000000002 M 4.740576044531251 0.8163540000000004 L 4.9468590445312515 0.8163540000000004 L 4.9468590445312515 0.6781005000000003 Q 4.9468590445312515 0.6298215000000003 4.891996544531251 0.6298215000000003 L 4.795438544531251 0.6298215000000003 Q 4.740576044531251 0.6298215000000003 4.740576044531251 0.6781005000000003 L 4.740576044531251 0.8163540000000004 M 5.510973485595704 0.26334000000000013 L 5.510973485595704 2.220446049250313e-16 L 5.897205485595705 2.220446049250313e-16 L 5.897205485595705 0.26334000000000013 L 5.510973485595704 0.26334000000000013 M 5.890621985595704 1.4681205000000004 L 5.5175569855957045 1.4681205000000004 L 5.5175569855957045 0.3730650000000002 L 5.890621985595704 0.3730650000000002 L 5.890621985595704 1.4681205000000004 M 6.650028710595705 0.3730650000000002 L 7.016510210595705 0.3730650000000002 L 7.016510210595705 1.4790930000000004 Q 7.016510210595705 1.7512110000000005 6.693918710595705 1.7512110000000005 L 6.169433210595704 1.7512110000000005 L 6.169433210595704 1.4878710000000004 L 6.588582710595705 1.4878710000000004 Q 6.643445210595704 1.4878710000000004 6.643445210595704 1.4395920000000004 L 6.643445210595704 1.2837825000000003 Q 6.601749710595705 1.4022855000000003 6.450329210595704 1.4022855000000003 L 6.410828210595705 1.4022855000000003 Q 6.118959710595704 1.4022855000000003 6.118959710595704 1.1301675000000002 L 6.118959710595704 0.6451830000000003 Q 6.118959710595704 0.3730650000000002 6.410828210595705 0.3730650000000002 L 6.450329210595704 0.3730650000000002 Q 6.619305710595705 0.3730650000000002 6.650028710595705 0.5135130000000002 L 6.650028710595705 0.3730650000000002 M 6.546887210595704 1.1279730000000003 L 6.584193710595704 1.1279730000000003 Q 6.643445210595704 1.1279730000000003 6.643445210595704 1.0621380000000005 L 6.643445210595704 0.7132125000000002 Q 6.643445210595704 0.6473775000000003 6.584193710595704 0.6473775000000003 L 6.546887210595704 0.6473775000000003 Q 6.492024710595705 0.6473775000000003 6.492024710595705 0.6956565000000003 L 6.492024710595705 1.0796940000000004 Q 6.492024710595705 1.1279730000000003 6.546887210595704 1.1279730000000003 M 7.832982507861329 0.3730650000000002 L 7.87248350786133 0.3730650000000002 Q 8.16435200786133 0.3730650000000002 8.16435200786133 0.6451830000000003 L 8.16435200786133 1.4681205000000004 L 7.79128700786133 1.4681205000000004 L 7.79128700786133 0.6956565000000003 Q 7.79128700786133 0.6473775000000003 7.736424507861329 0.6473775000000003 L 7.69911800786133 0.6473775000000003 Q 7.6398665078613295 0.6473775000000003 7.6398665078613295 0.7132125000000002 L 7.6398665078613295 1.4681205000000004 L 7.26680150786133 1.4681205000000004 L 7.26680150786133 2.220446049250313e-16 L 7.6398665078613295 2.220446049250313e-16 L 7.6398665078613295 0.4915680000000002 Q 7.68156200786133 0.3730650000000002 7.832982507861329 0.3730650000000002 M 8.958890020458986 0.6473775000000003 L 8.820636520458986 0.6473775000000003 L 8.820636520458986 1.1455290000000002 Q 8.820636520458986 1.1938080000000004 8.875499020458987 1.1938080000000004 L 8.956695520458986 1.1938080000000004 L 8.956695520458986 1.4681205000000004 L 8.770163020458986 1.4681205000000004 Q 8.447571520458986 1.4681205000000004 8.447571520458986 1.1960025000000003 L 8.447571520458986 0.6473775000000003 L 8.326874020458986 0.6473775000000003 L 8.326874020458986 0.3730650000000002 L 8.447571520458986 0.3730650000000002 L 8.447571520458986 0.15800400000000026 L 8.820636520458986 0.15800400000000026 L 8.820636520458986 0.3730650000000002 L 8.958890020458986 0.3730650000000002 L 8.958890020458986 0.6473775000000003 M 9.68313759799805 1.1455290000000002 L 9.68313759799805 0.9458295000000003 Q 9.68313759799805 0.8975505000000004 9.62827509799805 0.8975505000000004 L 9.417603097998049 0.8975505000000004 Q 9.255210097998049 0.8975505000000004 9.18827784799805 0.8262292500000004 Q 9.12134559799805 0.7549080000000002 9.12134559799805 0.6210435000000003 L 9.12134559799805 0.3313695000000003 Q 9.12134559799805 0.059251500000000235 9.441742597998049 0.059251500000000235 L 9.74238909799805 0.059251500000000235 Q 10.06278609799805 0.059251500000000235 10.06278609799805 0.3313695000000003 L 10.06278609799805 0.5003460000000003 L 9.67874859799805 0.5003460000000003 L 9.67874859799805 0.38184300000000015 Q 9.67874859799805 0.3335640000000002 9.62388609799805 0.3335640000000002 L 9.56024559799805 0.3335640000000002 Q 9.505383097998049 0.3335640000000002 9.505383097998049 0.38184300000000015 L 9.505383097998049 0.5903205000000002 Q 9.505383097998049 0.6385995000000003 9.56024559799805 0.6385995000000003 L 9.766528597998049 0.6385995000000003 Q 9.92892159799805 0.6385995000000003 9.998048347998049 0.7066290000000003 Q 10.06717509799805 0.7746585000000002 10.06717509799805 0.9063285000000003 L 10.06717509799805 1.1960025000000003 Q 10.06717509799805 1.4681205000000004 9.74677809799805 1.4681205000000004 L 9.448326097998049 1.4681205000000004 Q 9.125734597998049 1.4681205000000004 9.125734597998049 1.1960025000000003 L 9.125734597998049 1.0270260000000002 L 9.509772097998049 1.0270260000000002 L 9.509772097998049 1.1455290000000002 Q 9.509772097998049 1.1938080000000004 9.56463459799805 1.1938080000000004 L 9.62827509799805 1.1938080000000004 Q 9.68313759799805 1.1938080000000004 9.68313759799805 1.1455290000000002 M 10.596220400390626 0.3730650000000002 L 10.874921900390627 0.3730650000000002 Q 11.041703900390626 0.3730650000000002 11.114122400390627 0.44328900000000027 Q 11.186540900390627 0.5135130000000002 11.186540900390627 0.6451830000000003 L 11.186540900390627 1.1960025000000003 Q 11.186540900390627 1.3276725000000003 11.114122400390627 1.3978965000000003 Q 11.041703900390626 1.4681205000000004 10.874921900390627 1.4681205000000004 L 10.596220400390626 1.4681205000000004 Q 10.429438400390627 1.4681205000000004 10.357019900390627 1.3978965000000003 Q 10.284601400390626 1.3276725000000003 10.284601400390626 1.1960025000000003 L 10.284601400390626 0.6451830000000003 Q 10.284601400390626 0.5135130000000002 10.357019900390627 0.44328900000000027 Q 10.429438400390627 0.3730650000000002 10.596220400390626 0.3730650000000002 M 10.820059400390626 1.1608905000000003 L 10.820059400390626 0.6802950000000003 Q 10.820059400390626 0.6320160000000002 10.765196900390627 0.6320160000000002 L 10.705945400390627 0.6320160000000002 Q 10.651082900390627 0.6320160000000002 10.651082900390627 0.6802950000000003 L 10.651082900390627 1.1608905000000003 Q 10.651082900390627 1.2091695000000002 10.705945400390627 1.2091695000000002 L 10.765196900390627 1.2091695000000002 Q 10.820059400390626 1.2091695000000002 10.820059400390626 1.1608905000000003 M 12.016211272119142 0.26334000000000013 L 11.899902772119143 0.26334000000000013 Q 11.845040272119142 0.26334000000000013 11.845040272119142 0.3116190000000003 L 11.845040272119142 0.3730650000000002 L 12.016211272119142 0.3730650000000002 L 12.016211272119142 0.6473775000000003 L 11.845040272119142 0.6473775000000003 L 11.845040272119142 1.4681205000000004 L 11.471975272119142 1.4681205000000004 L 11.471975272119142 0.6473775000000003 L 11.360055772119143 0.6473775000000003 L 11.360055772119143 0.3730650000000002 L 11.471975272119142 0.3730650000000002 L 11.471975272119142 0.2721180000000003 Q 11.471975272119142 2.220446049250313e-16 11.794566772119142 2.220446049250313e-16 L 12.016211272119142 2.220446049250313e-16 L 12.016211272119142 0.26334000000000013 M 12.744951788378907 0.6473775000000003 L 12.606698288378908 0.6473775000000003 L 12.606698288378908 1.1455290000000002 Q 12.606698288378908 1.1938080000000004 12.661560788378909 1.1938080000000004 L 12.742757288378908 1.1938080000000004 L 12.742757288378908 1.4681205000000004 L 12.556224788378907 1.4681205000000004 Q 12.233633288378908 1.4681205000000004 12.233633288378908 1.1960025000000003 L 12.233633288378908 0.6473775000000003 L 12.112935788378907 0.6473775000000003 L 12.112935788378907 0.3730650000000002 L 12.233633288378908 0.3730650000000002 L 12.233633288378908 0.15800400000000026 L 12.606698288378908 0.15800400000000026 L 12.606698288378908 0.3730650000000002 L 12.744951788378907 0.3730650000000002 L 12.744951788378907 0.6473775000000003" fill="#0094ff" fill-rule="nonzero"></path></g><g></g></g><defs><clipPath id="SvgjsClipPath4274"><path d=" M 1.466783434064391 -10.968282772789184 h 9.833282772789184 v 9.833282772789184 h -9.833282772789184 Z"></path></clipPath><clipPath id="SvgjsClipPath426951ba259b-635d-4fe0-9d90-44ae32c080fb"><path d=" M 1.466783434064391 -10.968282772789184 L 11.300066206853575 -10.968282772789184 L 11.300066206853575 -1.1349999999999998 L 1.466783434064391 -1.1349999999999998 Z"></path></clipPath></defs></svg>