<svg xmlns="http://www.w3.org/2000/svg" version="1.1" xmlns:xlink="http://www.w3.org/1999/xlink" xmlns:svgjs="http://svgjs.dev/svgjs" viewBox="0 0 23.504806161894408 21.690917846854127"><g transform="matrix(0.8520534008142443,0,0,0.8520534008142443,3.343276832416178,17.129932369207644)"><rect width="27.271116495956786" height="27.271116495956786" x="-3.7663103340623767" y="-21.011238504374262" fill="#ffffff"></rect><g clip-path="url(#SvgjsClipPath81733)"><g clip-path="url(#SvgjsClipPath8172877c1db96-2868-423e-bdd9-8bf26f193a9b)"><path d=" M 6.960539809249403 -1.1349999999999998 L 3.678658257059659 -1.1349999999999998 C 2.9016395718060117 -1.1349999999999998 2.2677559075201428 -1.7688836642858696 2.2677559075201428 -2.545902349539519 L 2.2677559075201428 -5.827783901729262 L 2.656265250146966 -5.827783901729262 L 2.656265250146966 -2.545902349539519 C 2.656265250146966 -1.9835861957375371 3.1163421032576775 -1.5235093426268254 3.678658257059659 -1.5235093426268254 L 6.960539809249405 -1.5235093426268254 L 6.960539809249405 -1.1349999999999998 Z" fill="#efe0e2" transform="matrix(1,0,0,1,0,0)" fill-rule="nonzero"></path></g><g clip-path="url(#SvgjsClipPath8172877c1db96-2868-423e-bdd9-8bf26f193a9b)"><path d=" M 2.6562652501469657 -6.707041887674178 L 2.2677559075201423 -6.707041887674178 L 2.2677559075201423 -9.988923439863921 C 2.2677559075201423 -10.765942125117569 2.9016395718060117 -11.399825789403438 3.678658257059659 -11.399825789403438 L 6.960539809249405 -11.399825789403438 L 6.960539809249405 -11.011316446776615 L 3.678658257059659 -11.011316446776615 C 3.1163421032576775 -11.011316446776615 2.656265250146966 -10.551239593665905 2.656265250146966 -9.988923439863921 L 2.656265250146966 -6.707041887674178 Z" fill="#efe0e2" transform="matrix(1,0,0,1,0,0)" fill-rule="nonzero"></path></g><g clip-path="url(#SvgjsClipPath8172877c1db96-2868-423e-bdd9-8bf26f193a9b)"><path d=" M 12.53258169692358 -6.707041887674178 L 12.144072354296759 -6.707041887674178 L 12.144072354296759 -9.988923439863921 C 12.144072354296759 -10.551239593665905 11.683995501186047 -11.011316446776615 11.121679347384065 -11.011316446776615 L 7.829573865125193 -11.011316446776615 L 7.829573865125193 -11.399825789403438 L 11.111455417314938 -11.399825789403438 C 11.888474102568585 -11.399825789403438 12.522357766854455 -10.765942125117569 12.522357766854455 -9.988923439863921 L 12.53258169692358 -6.707041887674178 L 12.53258169692358 -6.707041887674178 Z" fill="#efe0e2" transform="matrix(1,0,0,1,0,0)" fill-rule="nonzero"></path></g><g clip-path="url(#SvgjsClipPath8172877c1db96-2868-423e-bdd9-8bf26f193a9b)"><path d=" M 11.111455417314938 -1.1349999999999998 L 7.829573865125193 -1.1349999999999998 L 7.829573865125193 -1.5235093426268254 L 11.111455417314938 -1.5235093426268254 C 11.67377157111692 -1.5235093426268254 12.133848424227631 -1.9835861957375371 12.133848424227631 -2.545902349539519 L 12.133848424227631 -5.827783901729262 L 12.522357766854455 -5.827783901729262 L 12.522357766854455 -2.545902349539519 C 12.53258169692358 -1.7688836642858696 11.888474102568585 -1.1349999999999998 11.111455417314938 -1.1349999999999998 Z" fill="#efe0e2" transform="matrix(1,0,0,1,0,0)" fill-rule="nonzero"></path></g><g clip-path="url(#SvgjsClipPath8172877c1db96-2868-423e-bdd9-8bf26f193a9b)"><path d=" M 11.89869803263771 -6.073158223388308 L 8.616816480447966 -6.073158223388308 C 7.83979779519432 -6.073158223388308 7.20591413090845 -6.707041887674178 7.20591413090845 -7.484060572927822 L 7.20591413090845 -10.765942125117569 L 7.594423473535273 -10.765942125117569 L 7.594423473535273 -7.484060572927824 C 7.594423473535273 -6.921744419125842 8.054500326645986 -6.46166756601513 8.616816480447966 -6.46166756601513 L 11.89869803263771 -6.46166756601513 L 11.89869803263771 -6.073158223388308 Z" fill="#efe0e2" transform="matrix(1,0,0,1,0,0)" fill-rule="nonzero"></path></g><g clip-path="url(#SvgjsClipPath8172877c1db96-2868-423e-bdd9-8bf26f193a9b)"><path d=" M 7.594423473535273 -11.645200111062486 L 7.20591413090845 -11.645200111062486 L 7.20591413090845 -14.916857733183104 C 7.20591413090845 -15.69387641843675 7.83979779519432 -16.32776008272262 8.616816480447966 -16.32776008272262 L 11.89869803263771 -16.32776008272262 L 11.89869803263771 -15.939250740095796 L 8.616816480447966 -15.939250740095796 C 8.054500326645986 -15.939250740095796 7.594423473535273 -15.479173886985084 7.594423473535273 -14.916857733183104 L 7.594423473535273 -11.645200111062486 Z" fill="#efe0e2" transform="matrix(1,0,0,1,0,0)" fill-rule="nonzero"></path></g><g clip-path="url(#SvgjsClipPath8172877c1db96-2868-423e-bdd9-8bf26f193a9b)"><path d=" M 17.47073992031189 -11.645200111062486 L 17.082230577685063 -11.645200111062486 L 17.082230577685063 -14.916857733183104 C 17.082230577685063 -15.479173886985084 16.622153724574353 -15.939250740095796 16.05983757077237 -15.939250740095796 L 12.777956018582628 -15.939250740095796 L 12.777956018582628 -16.337984012791747 L 16.05983757077237 -16.337984012791747 C 16.836856256026017 -16.337984012791747 17.47073992031189 -15.704100348505877 17.47073992031189 -14.92708166325223 L 17.47073992031189 -11.645200111062486 Z" fill="#efe0e2" transform="matrix(1,0,0,1,0,0)" fill-rule="nonzero"></path></g><g clip-path="url(#SvgjsClipPath8172877c1db96-2868-423e-bdd9-8bf26f193a9b)"><path d=" M 16.049613640703246 -6.073158223388308 L 12.767732088513501 -6.073158223388308 L 12.767732088513501 -6.46166756601513 L 16.049613640703246 -6.46166756601513 C 16.61192979450523 -6.46166756601513 17.07200664761594 -6.921744419125842 17.07200664761594 -7.484060572927822 L 17.07200664761594 -10.765942125117569 L 17.46051599024276 -10.765942125117569 L 17.46051599024276 -7.484060572927824 C 17.47073992031189 -6.707041887674178 16.826632325956894 -6.073158223388308 16.049613640703246 -6.073158223388308 Z" fill="#efe0e2" transform="matrix(1,0,0,1,0,0)" fill-rule="nonzero"></path></g><g clip-path="url(#SvgjsClipPath8172877c1db96-2868-423e-bdd9-8bf26f193a9b)"><path d=" M 16.00871792042674 -13.597970754265729 L 16.00871792042674 -8.823395411983451 C 16.00871792042674 -8.117944237213694 15.436177836555633 -7.535180223273459 14.720502731716747 -7.535180223273459 L 12.900643179412153 -7.535180223273459 L 12.900643179412153 -10.397880642629 C 12.900643179412153 -11.154451467744392 12.287207375264538 -11.778111201961135 11.530636550149143 -11.778111201961135 L 8.657712200724475 -11.778111201961135 L 8.657712200724475 -13.597970754265729 C 8.657712200724475 -14.303421929035487 9.230252284595583 -14.886185942975722 9.945927389434468 -14.886185942975722 L 14.720502731716746 -14.886185942975722 C 15.425953906486503 -14.875962012906596 16.00871792042674 -14.303421929035487 16.00871792042674 -13.597970754265729 Z" fill="#c84449" transform="matrix(1,0,0,1,0,0)" fill-rule="nonzero"></path></g><g clip-path="url(#SvgjsClipPath8172877c1db96-2868-423e-bdd9-8bf26f193a9b)"><path d=" M 3.7195539773361666 -3.8750132585260175 L 3.7195539773361666 -8.65981253087742 C 3.7195539773361666 -9.36526370564718 4.292094061207274 -9.948027719587415 5.00776916604616 -9.948027719587415 L 6.827628718350754 -9.948027719587415 L 6.827628718350754 -7.085327300231874 C 6.827628718350754 -6.32875647511648 7.44106452249837 -5.705096740899737 8.197635347613762 -5.705096740899737 L 11.07055969703843 -5.705096740899737 L 11.07055969703843 -3.885237188595143 C 11.07055969703843 -3.1797860138253835 10.498019613167322 -2.5970219998851505 9.782344508328435 -2.5970219998851505 L 5.00776916604616 -2.5970219998851505 C 4.292094061207274 -2.5970219998851505 3.7195539773361666 -3.169562083756258 3.7195539773361666 -3.8750132585260175 Z" fill="#e37f7c" transform="matrix(1,0,0,1,0,0)" fill-rule="nonzero"></path></g><g clip-path="url(#SvgjsClipPath8172877c1db96-2868-423e-bdd9-8bf26f193a9b)"><path d=" M 8.667936130793601 -7.06487944009362 L 11.530636550149142 -7.06487944009362 L 11.530636550149142 -9.92757985944916 C 11.530636550149142 -10.234297761522969 11.285262228490096 -10.479672083182015 10.978544326416287 -10.479672083182015 L 8.115843907060746 -10.479672083182015 L 8.115843907060746 -7.616971663826474 C 8.126067837129874 -7.310253761752666 8.37144215878892 -7.06487944009362 8.667936130793601 -7.06487944009362 Z" fill="#0094ff" transform="matrix(1,0,0,1,0,0)" fill-rule="nonzero"></path></g></g><g><path d=" M 1.171863 0.02413949999999976 L 1.171863 0.3664814999999997 L 0.5530140000000001 0.3664814999999997 L 0.5530140000000001 0.6385994999999999 L 1.00947 0.6385994999999999 L 1.00947 0.9655799999999999 L 0.5530140000000001 0.9655799999999999 L 0.5530140000000001 1.571262 L 0.12289200000000002 1.571262 L 0.12289200000000002 0.02413949999999976 L 1.171863 0.02413949999999976 M 1.8587944337402345 1.242087 L 2.339389933740234 1.242087 L 2.339389933740234 1.571262 L 1.4286724337402343 1.571262 L 1.4286724337402343 0.02413949999999976 L 1.8587944337402345 0.02413949999999976 L 1.8587944337402345 1.242087 M 3.987630236132813 0.02413949999999976 L 3.4433942361328125 1.079694 L 3.4433942361328125 1.571262 L 3.0110777361328127 1.571262 L 3.0110777361328127 1.079694 L 2.4668417361328125 0.02413949999999976 L 2.9584097361328126 0.02413949999999976 L 3.230527736132813 0.6210434999999999 L 3.5026457361328127 0.02413949999999976 L 3.987630236132813 0.02413949999999976 M 6.373136815869142 0.02413949999999976 L 5.993488315869142 1.571262 L 5.464613815869141 1.571262 L 5.251747315869141 0.6232379999999998 L 5.034491815869141 1.571262 L 4.505617315869141 1.571262 L 4.130357815869141 0.02413949999999976 L 4.595591815869141 0.02413949999999976 L 4.775540815869141 1.0818884999999998 L 5.019130315869141 0.02413949999999976 L 5.490947815869141 0.02413949999999976 L 5.727953815869141 1.0731104999999999 L 5.907902815869141 0.02413949999999976 L 6.373136815869142 0.02413949999999976 M 7.0601003956054695 0.3686759999999998 L 7.0601003956054695 0.6210434999999999 L 7.553862895605469 0.6210434999999999 L 7.553862895605469 0.9480239999999999 L 7.0601003956054695 0.9480239999999999 L 7.0601003956054695 1.2267255 L 7.619697895605469 1.2267255 L 7.619697895605469 1.571262 L 6.62997839560547 1.571262 L 6.62997839560547 0.02413949999999976 L 7.619697895605469 0.02413949999999976 L 7.619697895605469 0.3686759999999998 L 7.0601003956054695 0.3686759999999998 M 8.3373512578125 0.02413949999999976 L 8.3373512578125 1.571262 L 7.907229257812501 1.571262 L 7.907229257812501 0.02413949999999976 L 8.3373512578125 0.02413949999999976 M 9.645346550683595 0.5332634999999999 Q 9.608040050683595 0.4718174999999998 9.543302300683594 0.43889999999999985 Q 9.478564550683595 0.4059824999999997 9.390784550683595 0.4059824999999997 Q 9.228391550683595 0.4059824999999997 9.135125300683594 0.5113184999999998 Q 9.041859050683595 0.6166544999999998 9.041859050683595 0.7944089999999998 Q 9.041859050683595 0.9941084999999998 9.141708800683595 1.0983472499999998 Q 9.241558550683594 1.202586 9.432480050683594 1.202586 Q 9.658513550683594 1.202586 9.755071550683596 0.9984974999999998 L 9.322755050683595 0.9984974999999998 L 9.322755050683595 0.6890729999999998 L 10.125942050683594 0.6890729999999998 L 10.125942050683594 1.1060279999999998 Q 10.075468550683595 1.22892 9.977813300683595 1.3364505 Q 9.880158050683594 1.443981 9.730932050683595 1.5131077499999999 Q 9.581706050683595 1.5822345 9.390784550683595 1.5822345 Q 9.158167550683595 1.5822345 8.979315800683596 1.48238475 Q 8.800464050683594 1.3825349999999998 8.702808800683595 1.2036832499999999 Q 8.605153550683594 1.0248315 8.605153550683594 0.7944089999999998 Q 8.605153550683594 0.5661809999999998 8.702808800683595 0.38732924999999985 Q 8.800464050683594 0.20847749999999987 8.978218550683595 0.10862774999999969 Q 9.155973050683595 0.00877799999999973 9.388590050683595 0.00877799999999973 Q 9.680458550683595 0.00877799999999973 9.871380050683594 0.14922599999999986 Q 10.062301550683594 0.28967399999999977 10.108386050683595 0.5332634999999999 L 9.645346550683595 0.5332634999999999 M 11.778552065478518 0.02413949999999976 L 11.778552065478518 1.571262 L 11.348430065478517 1.571262 L 11.348430065478517 0.9502184999999999 L 10.823944565478516 0.9502184999999999 L 10.823944565478516 1.571262 L 10.393822565478517 1.571262 L 10.393822565478517 0.02413949999999976 L 10.823944565478516 0.02413949999999976 L 10.823944565478516 0.6056819999999998 L 11.348430065478517 0.6056819999999998 L 11.348430065478517 0.02413949999999976 L 11.778552065478518 0.02413949999999976 M 13.264296500683596 0.02413949999999976 L 13.264296500683596 0.3664814999999997 L 12.851730500683596 0.3664814999999997 L 12.851730500683596 1.571262 L 12.421608500683595 1.571262 L 12.421608500683595 0.3664814999999997 L 12.013431500683595 0.3664814999999997 L 12.013431500683595 0.02413949999999976 L 13.264296500683596 0.02413949999999976 M 14.133500447021486 1.4582452499999998 Q 13.960134947021487 1.329867 13.946967947021486 1.0906664999999998 L 14.405618447021487 1.0906664999999998 Q 14.412201947021487 1.1718629999999999 14.453897447021486 1.2091694999999998 Q 14.495592947021487 1.246476 14.561427947021487 1.246476 Q 14.620679447021487 1.246476 14.659083197021486 1.2168502499999998 Q 14.697486947021487 1.1872245 14.697486947021487 1.1345565 Q 14.697486947021487 1.0665269999999998 14.633846447021487 1.0292204999999999 Q 14.570205947021487 0.9919139999999999 14.427563447021488 0.9458294999999999 Q 14.276142947021487 0.8953559999999998 14.182876697021486 0.8481742499999998 Q 14.089610447021487 0.8009924999999999 14.020483697021486 0.7099207499999999 Q 13.951356947021488 0.6188489999999999 13.951356947021488 0.4718174999999998 Q 13.951356947021488 0.3225914999999997 14.025969947021487 0.21615824999999966 Q 14.100582947021486 0.10972499999999985 14.232252947021486 0.054862499999999814 Q 14.363922947021488 -2.220446049250313e-16 14.530704947021487 -2.220446049250313e-16 Q 14.800628447021486 -2.220446049250313e-16 14.961924197021487 0.12618374999999982 Q 15.123219947021488 0.25236749999999986 15.134192447021487 0.48059549999999973 L 14.666763947021487 0.48059549999999973 Q 14.664569447021487 0.4103714999999999 14.623971197021486 0.37525949999999986 Q 14.583372947021488 0.3401474999999998 14.519732447021486 0.3401474999999998 Q 14.471453447021487 0.3401474999999998 14.440730447021487 0.3686759999999998 Q 14.410007447021487 0.39720449999999974 14.410007447021487 0.4498724999999999 Q 14.410007447021487 0.4937624999999999 14.444022197021487 0.5255827499999999 Q 14.478036947021486 0.5574029999999999 14.528510447021487 0.5804452499999998 Q 14.578983947021486 0.6034874999999998 14.677736447021488 0.6385994999999999 Q 14.824767947021487 0.6890729999999998 14.920228697021487 0.7384492499999998 Q 15.015689447021487 0.7878254999999998 15.084816197021487 0.8767027499999999 Q 15.153942947021488 0.9655799999999999 15.153942947021488 1.1016389999999998 Q 15.153942947021488 1.2398924999999998 15.084816197021487 1.3496175 Q 15.015689447021487 1.4593425 14.885116697021488 1.522983 Q 14.754543947021487 1.5866235 14.576789447021486 1.5866235 Q 14.306865947021487 1.5866235 14.133500447021486 1.4582452499999998 M 15.770696456689455 1.48457925 Q 15.588552956689455 1.3825349999999998 15.482119706689454 1.2014887499999998 Q 15.375686456689454 1.0204425 15.375686456689454 0.7922144999999998 Q 15.375686456689454 0.5639864999999997 15.482119706689454 0.38294024999999987 Q 15.588552956689455 0.2018939999999998 15.770696456689455 0.10094699999999968 Q 15.952839956689454 -2.220446049250313e-16 16.170095456689456 -2.220446049250313e-16 Q 16.389545456689454 -2.220446049250313e-16 16.570591706689456 0.10094699999999968 Q 16.751637956689454 0.2018939999999998 16.856973956689455 0.38294024999999987 Q 16.962309956689456 0.5639864999999997 16.962309956689456 0.7922144999999998 Q 16.962309956689456 1.0204425 16.856973956689455 1.2014887499999998 Q 16.751637956689454 1.3825349999999998 16.569494456689455 1.48457925 Q 16.387350956689456 1.5866235 16.170095456689456 1.5866235 Q 15.952839956689454 1.5866235 15.770696456689455 1.48457925 M 16.430143706689456 1.079694 Q 16.525604456689454 0.9721634999999998 16.525604456689454 0.7922144999999998 Q 16.525604456689454 0.6078764999999998 16.430143706689456 0.5014432499999999 Q 16.334682956689456 0.39500999999999986 16.170095456689456 0.39500999999999986 Q 16.003313456689455 0.39500999999999986 15.908949956689455 0.5014432499999999 Q 15.814586456689455 0.6078764999999998 15.814586456689455 0.7922144999999998 Q 15.814586456689455 0.9743579999999998 15.908949956689455 1.0807912499999999 Q 16.003313456689455 1.1872245 16.170095456689456 1.1872245 Q 16.334682956689456 1.1872245 16.430143706689456 1.079694 M 18.27909182182617 0.02413949999999976 L 18.27909182182617 0.3664814999999997 L 17.660242821826174 0.3664814999999997 L 17.660242821826174 0.6385994999999999 L 18.116698821826173 0.6385994999999999 L 18.116698821826173 0.9655799999999999 L 17.660242821826174 0.9655799999999999 L 17.660242821826174 1.571262 L 17.230120821826173 1.571262 L 17.230120821826173 0.02413949999999976 L 18.27909182182617 0.02413949999999976 M 19.70118075556641 0.02413949999999976 L 19.70118075556641 0.3664814999999997 L 19.288614755566407 0.3664814999999997 L 19.288614755566407 1.571262 L 18.85849275556641 1.571262 L 18.85849275556641 0.3664814999999997 L 18.450315755566407 0.3664814999999997 L 18.450315755566407 0.02413949999999976 L 19.70118075556641 0.02413949999999976" fill="#0094ff" fill-rule="nonzero"></path></g><g></g></g><defs><clipPath id="SvgjsClipPath81733"><path d=" M 2.267755907520142 -16.337984012791747 h 15.202984012791745 v 15.202984012791745 h -15.202984012791745 Z"></path></clipPath><clipPath id="SvgjsClipPath8172877c1db96-2868-423e-bdd9-8bf26f193a9b"><path d=" M 2.267755907520142 -16.337984012791747 L 17.470739920311885 -16.337984012791747 L 17.470739920311885 -1.1350000000000016 L 2.267755907520142 -1.1350000000000016 Z"></path></clipPath></defs></svg>